<svg width="275" height="90" viewBox="0 0 275 90" fill="none" xmlns="http://www.w3.org/2000/svg">
<g clip-path="url(#clip0_1_10429)">
<path d="M108.67 34.8747H98.1038L87.5377 49.9182L92.0313 23H83.0441L76 65.1944H84.9873L87.5134 50.0617L97.1322 65.1944H107.941L97.7419 49.8224L108.67 34.8747Z" fill="#531A56"/>
<path d="M161.136 34.272C157.173 34.272 154.188 35.668 151.66 38.1147L151.527 38.0912L151.178 34.8145H143.04V77.25H151.906V62.9961L152.14 62.9485C154.403 64.7689 157.386 65.7973 160.772 65.7973C169.091 65.7973 175.407 59.6489 175.407 49.8839C175.407 40.2998 169.395 34.272 161.136 34.272ZM159.193 57.9009C154.76 57.9009 151.906 54.8267 151.906 50.0045C151.906 45.2425 154.76 42.1684 159.193 42.1684C163.626 42.1684 166.48 45.2425 166.48 50.0045C166.48 54.8267 163.626 57.9009 159.193 57.9009Z" fill="#531A56"/>
<path d="M123.243 34.272C113.953 34.272 107.516 40.9025 107.516 50.0045C107.516 59.227 114.074 65.7973 123.365 65.7973C131.198 65.7973 136.542 61.0956 138.121 55.7911H129.316C128.101 57.5392 126.158 58.3228 123.79 58.3228C119.908 58.3228 117.139 56.2306 116.224 52.717H138.728C139.882 42.53 133.627 34.272 123.243 34.272ZM123.122 41.7464C126.348 41.7464 128.736 43.5318 129.733 46.6892H116.391C117.395 43.612 119.858 41.7464 123.122 41.7464Z" fill="#531A56"/>
<path d="M191.584 43.3136H198.664L200 34.8747H193.004L194.596 25.4111H185.609L184.026 34.8747H179.05L177.654 43.3136H182.614L180.447 56.2734C179.475 62.2409 181.661 65.1945 188.705 65.1945H195.203L196.539 56.7556H191.438C189.859 56.7556 189.434 56.2131 189.677 54.6459L191.584 43.3136Z" fill="#531A56"/>
</g>
<defs>
<clipPath id="clip0_1_10429">
<rect width="124" height="54.25" fill="white" transform="translate(76 23)"/>
</clipPath>
</defs>
</svg>
