<svg width="135" height="35" viewBox="0 0 135 35" fill="none" xmlns="http://www.w3.org/2000/svg">
<path d="M48.207 22.5C48.105 22.5 48.054 22.4433 48.054 22.33V11.535C48.054 11.4217 48.105 11.365 48.207 11.365H49.329C49.431 11.365 49.482 11.4217 49.482 11.535V16.193H50.451L53.001 11.467C53.0237 11.4217 53.0463 11.3933 53.069 11.382C53.103 11.3707 53.1427 11.365 53.188 11.365H54.395C54.4517 11.365 54.48 11.3877 54.48 11.433C54.4913 11.467 54.4857 11.5123 54.463 11.569L51.709 16.686L54.769 22.296C54.7917 22.3527 54.7917 22.4037 54.769 22.449C54.7577 22.483 54.718 22.5 54.65 22.5H53.358C53.324 22.5 53.29 22.4943 53.256 22.483C53.2333 22.4717 53.2107 22.4433 53.188 22.398L50.485 17.502H49.482V22.33C49.482 22.4433 49.431 22.5 49.329 22.5H48.207Z" fill="#E4E4E4"/>
<path d="M61.0705 22.636C59.9712 22.636 59.1325 22.3357 58.5545 21.735C57.9765 21.123 57.6875 20.239 57.6875 19.083V14.799C57.6875 13.6317 57.9765 12.7477 58.5545 12.147C59.1325 11.535 59.9712 11.229 61.0705 11.229C62.1812 11.229 63.0255 11.535 63.6035 12.147C64.1815 12.7477 64.4705 13.6317 64.4705 14.799V19.083C64.4705 20.239 64.1815 21.123 63.6035 21.735C63.0255 22.3357 62.1812 22.636 61.0705 22.636ZM61.0705 21.327C61.7165 21.327 62.2038 21.14 62.5325 20.766C62.8725 20.3807 63.0425 19.797 63.0425 19.015V14.867C63.0425 14.0737 62.8725 13.49 62.5325 13.116C62.2038 12.7307 61.7165 12.538 61.0705 12.538C60.4358 12.538 59.9485 12.7307 59.6085 13.116C59.2798 13.49 59.1155 14.0737 59.1155 14.867V19.015C59.1155 19.797 59.2798 20.3807 59.6085 20.766C59.9485 21.14 60.4358 21.327 61.0705 21.327Z" fill="#E4E4E4"/>
<path d="M67.6565 22.5C67.5432 22.5 67.5035 22.4377 67.5375 22.313L70.2915 11.484C70.3142 11.4047 70.3765 11.365 70.4785 11.365H71.9915C72.0822 11.365 72.1445 11.4047 72.1785 11.484L74.9665 22.313C74.9892 22.4377 74.9438 22.5 74.8305 22.5H73.6065C73.5272 22.5 73.4762 22.4603 73.4535 22.381L71.7025 15.071C71.6232 14.697 71.5382 14.323 71.4475 13.949C71.3682 13.575 71.2945 13.201 71.2265 12.827H71.1925C71.1132 13.201 71.0395 13.575 70.9715 13.949C70.9035 14.3117 70.8242 14.68 70.7335 15.054L69.0165 22.364C68.9938 22.4547 68.9372 22.5 68.8465 22.5H67.6565Z" fill="#E4E4E4"/>
<path d="M77.6264 22.5C77.5131 22.5 77.4734 22.4377 77.5074 22.313L80.2614 11.484C80.2841 11.4047 80.3464 11.365 80.4484 11.365H81.9614C82.0521 11.365 82.1144 11.4047 82.1484 11.484L84.9364 22.313C84.9591 22.4377 84.9138 22.5 84.8004 22.5H83.5764C83.4971 22.5 83.4461 22.4603 83.4234 22.381L81.6724 15.071C81.5931 14.697 81.5081 14.323 81.4174 13.949C81.3381 13.575 81.2644 13.201 81.1964 12.827H81.1624C81.0831 13.201 81.0094 13.575 80.9414 13.949C80.8734 14.3117 80.7941 14.68 80.7034 15.054L78.9864 22.364C78.9638 22.4547 78.9071 22.5 78.8164 22.5H77.6264Z" fill="#E4E4E4"/>
<path d="M88.4187 22.5C88.3167 22.5 88.2657 22.4433 88.2657 22.33V11.535C88.2657 11.4217 88.3167 11.365 88.4187 11.365H93.2977C93.3997 11.365 93.4507 11.4217 93.4507 11.535V12.504C93.4507 12.6287 93.3997 12.691 93.2977 12.691H89.6937V16.21H92.9917C93.0937 16.21 93.1447 16.2667 93.1447 16.38V17.298C93.1447 17.4113 93.0937 17.468 92.9917 17.468H89.6937V21.174H93.2977C93.3997 21.174 93.4507 21.2363 93.4507 21.361V22.33C93.4507 22.4433 93.3997 22.5 93.2977 22.5H88.4187Z" fill="#E4E4E4"/>
<path d="M97.8242 22.5C97.7222 22.5 97.6712 22.4433 97.6712 22.33V11.535C97.6712 11.4217 97.7222 11.365 97.8242 11.365H98.9462C99.0482 11.365 99.0992 11.4217 99.0992 11.535V16.193H100.068L102.618 11.467C102.641 11.4217 102.664 11.3933 102.686 11.382C102.72 11.3707 102.76 11.365 102.805 11.365H104.012C104.069 11.365 104.097 11.3877 104.097 11.433C104.109 11.467 104.103 11.5123 104.08 11.569L101.326 16.686L104.386 22.296C104.409 22.3527 104.409 22.4037 104.386 22.449C104.375 22.483 104.335 22.5 104.267 22.5H102.975C102.941 22.5 102.907 22.4943 102.873 22.483C102.851 22.4717 102.828 22.4433 102.805 22.398L100.102 17.502H99.0992V22.33C99.0992 22.4433 99.0482 22.5 98.9462 22.5H97.8242Z" fill="#E4E4E4"/>
<path d="M109.678 22.5C109.576 22.5 109.525 22.4433 109.525 22.33V12.691H107.247C107.156 12.691 107.111 12.6287 107.111 12.504V11.535C107.111 11.4217 107.156 11.365 107.247 11.365H113.231C113.333 11.365 113.384 11.4217 113.384 11.535V12.504C113.384 12.6287 113.333 12.691 113.231 12.691H110.953V22.33C110.953 22.4433 110.908 22.5 110.817 22.5H109.678Z" fill="#E4E4E4"/>
<path d="M117.266 22.5C117.164 22.5 117.113 22.4433 117.113 22.33V11.535C117.113 11.4217 117.164 11.365 117.266 11.365H118.354C118.456 11.365 118.507 11.4217 118.507 11.535V16.601C118.507 17.0317 118.496 17.4963 118.473 17.995C118.462 18.4823 118.439 18.9527 118.405 19.406C118.382 19.848 118.36 20.2163 118.337 20.511H118.371C118.484 20.205 118.609 19.8593 118.745 19.474C118.892 19.0773 119.062 18.641 119.255 18.165C119.448 17.6777 119.669 17.1563 119.918 16.601L122.111 11.467C122.134 11.399 122.185 11.365 122.264 11.365H123.573C123.686 11.365 123.743 11.4217 123.743 11.535V22.33C123.743 22.4433 123.686 22.5 123.573 22.5H122.485C122.383 22.5 122.332 22.4433 122.332 22.33L122.366 17.485C122.377 17.0543 122.389 16.584 122.4 16.074C122.411 15.564 122.428 15.0653 122.451 14.578C122.485 14.0907 122.513 13.6883 122.536 13.371H122.502C122.389 13.6883 122.253 14.0567 122.094 14.476C121.947 14.884 121.771 15.3373 121.567 15.836C121.363 16.3347 121.119 16.8843 120.836 17.485L118.728 22.398C118.705 22.466 118.654 22.5 118.575 22.5H117.266Z" fill="#E4E4E4"/>
<path d="M128.315 22.5C128.202 22.5 128.145 22.4433 128.145 22.33V11.535C128.145 11.4217 128.202 11.365 128.315 11.365H130.627C131.727 11.365 132.537 11.5917 133.058 12.045C133.58 12.4983 133.84 13.184 133.84 14.102C133.84 14.714 133.721 15.224 133.483 15.632C133.245 16.0287 132.871 16.3517 132.361 16.601V16.635C132.973 16.7823 133.432 17.0883 133.738 17.553C134.056 18.0063 134.214 18.6183 134.214 19.389C134.214 20.4317 133.931 21.2137 133.364 21.735C132.809 22.245 131.948 22.5 130.78 22.5H128.315ZM129.573 21.225H130.763C131.477 21.225 131.993 21.072 132.31 20.766C132.639 20.46 132.803 19.9613 132.803 19.27C132.803 18.6127 132.639 18.1253 132.31 17.808C131.993 17.4907 131.494 17.332 130.814 17.332H129.573V21.225ZM129.573 16.142H130.695C131.285 16.142 131.721 15.989 132.004 15.683C132.288 15.377 132.429 14.9237 132.429 14.323C132.429 13.7223 132.282 13.2917 131.987 13.031C131.704 12.759 131.239 12.623 130.593 12.623H129.573V16.142Z" fill="#E4E4E4"/>
<path d="M17.5 20.5C13 21.3789 10.5 27.1211 10.5 27.1211L1 8.62109C1 8.62109 6.5 0.121094 15.5 0.121094C22 0.121094 25 3.62109 31 3.62109C37 3.62109 42 0.621094 42 0.621094C42 0.621094 41.2814 6.39022 40.5 10C39.7186 13.6098 38 19.5 38 19.5C38 19.5 34 22.5 29 22.5C24 22.5 22 19.6211 17.5 20.5Z" fill="#FF0000"/>
<line x1="13.8317" y1="34.2194" x2="0.831435" y2="8.70485" stroke="#FF0000" stroke-width="1.5"/>
<path d="M24.5771 6.62793V14.168L27.7451 7.45703L29.1924 7.83594V18.9473L27.6924 18.6465V11.083L24.5049 17.832L23.0771 17.5117V6.23535L24.5771 6.62793Z" fill="#E4E4E4"/>
<path d="M16.501 4.51367V12.7881L19.2852 5.24316L21.1162 5.72168V17.3271L19.6162 17.0264V8.68066L16.748 16.4512L15 16.0996V4.12109L16.501 4.51367Z" fill="#E4E4E4"/>
</svg>
