<svg width="238" height="78" viewBox="0 0 238 78" fill="none" xmlns="http://www.w3.org/2000/svg">
<g clip-path="url(#clip0_2001_601)">
<path d="M94.2429 31.2428H85.1289L76.0148 44.2189L79.8909 21H72.1388L66.0627 57.3957H73.8149L75.9939 44.3427L84.2908 57.3957H93.6143L84.8167 44.1362L94.2429 31.2428Z" fill="white"/>
<path d="M139.499 30.7229C136.08 30.7229 133.505 31.9271 131.325 34.0375L131.21 34.0172L130.909 31.1908H123.89V67.7946H131.537V55.4996L131.739 55.4585C133.691 57.0287 136.264 57.9157 139.185 57.9157C146.361 57.9157 151.808 52.6123 151.808 44.1893C151.808 35.9223 146.623 30.7229 139.499 30.7229ZM137.823 51.1045C133.999 51.1045 131.537 48.4528 131.537 44.2933C131.537 40.1858 133.999 37.5341 137.823 37.5341C141.647 37.5341 144.108 40.1858 144.108 44.2933C144.108 48.4528 141.647 51.1045 137.823 51.1045Z" fill="white"/>
<path d="M106.814 30.7229C98.7997 30.7229 93.2474 36.4422 93.2474 44.2933C93.2474 52.2484 98.9044 57.9157 106.918 57.9157C113.675 57.9157 118.285 53.8602 119.647 49.2847H112.052C111.004 50.7925 109.328 51.4685 107.285 51.4685C103.937 51.4685 101.549 49.6638 100.759 46.633H120.17C121.166 37.8461 115.771 30.7229 106.814 30.7229ZM106.709 37.1701C109.491 37.1701 111.551 38.7102 112.412 41.4336H100.903C101.769 38.7794 103.894 37.1701 106.709 37.1701Z" fill="white"/>
<path d="M165.762 38.522H171.87L173.022 31.2428H166.987L168.36 23.0798H160.608L159.243 31.2428H154.951L153.746 38.522H158.025L156.156 49.7006C155.318 54.848 157.203 57.3957 163.279 57.3957H168.884L170.036 50.1166H165.636C164.275 50.1166 163.908 49.6487 164.117 48.2968L165.762 38.522Z" fill="white"/>
</g>
<defs>
<clipPath id="clip0_2001_601">
<rect width="106.959" height="46.7945" fill="white" transform="translate(66.0627 21)"/>
</clipPath>
</defs>
</svg>
