<svg width="239" height="78" viewBox="0 0 239 78" fill="none" xmlns="http://www.w3.org/2000/svg">
<path d="M76.2986 15.5346H28V63.6982H76.2986V15.5346Z" fill="#ED1A3A"/>
<path d="M68.4984 20.3325C67.3885 20.3325 66.5479 21.0668 66.1291 21.9493L60.0477 31.9333C59.626 32.8566 59.3182 33.894 59.3182 34.5807C59.3182 35.1943 59.4026 35.7364 59.6281 36.2361L66.2066 51.9078H40.6608C39.7413 51.9078 38.9823 50.9867 38.9823 50.1364V23.1409C38.789 19.4504 33.47 19.4524 33.3528 23.2569L33.469 51.9078C33.469 55.0226 35.8839 57.5181 38.9823 57.5181H73.8116L65.3221 35.856C65.0878 35.0496 64.9835 34.3182 65.5545 33.3568L71.1711 24.2488C71.2502 24.0589 71.3648 23.2558 71.3648 23.025C71.2535 21.3711 69.9539 20.2594 68.4984 20.3325ZM54.7087 20.3454C53.3425 20.3545 51.9779 21.2957 51.9779 23.1409V42.4584C51.9779 45.2635 48.1948 45.0327 48.1948 42.4584V23.1409C48.1948 19.4504 42.7203 19.4504 42.7203 23.1409V42.613C42.7203 47.0661 46.0547 50.0269 50.0347 50.0269C54.1231 50.0269 57.446 47.0661 57.446 42.613V23.1409C57.446 21.2591 56.0749 20.3363 54.7087 20.3454Z" fill="white"/>
<path d="M85.7609 21.1946V33.9375C85.7609 37.1225 85.4358 38.8932 82.8352 38.8932C82.3491 38.8932 82.024 38.8932 81.5378 38.7179V44.2025C82.5101 44.559 83.1603 44.559 83.9744 44.559C91.2843 44.559 91.6093 39.0715 91.6093 35.8836V26.6821H95.8324V44.2025H101.678V21.1946H85.7609Z" fill="white"/>
<path d="M103.628 21.1946L111.588 37.8325L108.666 44.2025H115L124.422 21.1946H118.087L114.675 30.9278L110.613 21.1946H103.628Z" fill="white"/>
<path d="M126.208 44.2025H132.056V34.2911L138.066 44.2025H145.537L137.255 32.345L145.376 21.1946H138.391L132.056 30.9278V21.1946H126.208V44.2025Z" fill="white"/>
<path d="M155.122 44.9124C162.918 44.9124 166.491 38.8931 166.491 32.6984C166.491 26.682 162.918 20.6626 155.122 20.6626C147.487 20.6626 143.914 26.682 143.914 32.6984C143.914 38.8931 147.487 44.9124 155.122 44.9124ZM155.122 39.4249C152.522 39.4249 149.924 37.1223 149.924 32.6984C149.924 28.2745 152.522 26.1501 155.122 26.1501C157.884 26.1501 160.482 28.2745 160.482 32.6984C160.482 37.1223 157.884 39.4249 155.122 39.4249Z" fill="white"/>
<path d="M169.417 21.1947V44.2026H175.101L183.222 30.399V44.2026H188.91V21.1947H183.222L175.101 35.0012V21.1947H169.417ZM179.324 19.9557C181.761 19.9557 184.197 19.0704 185.337 16.4143L181.925 15C181.436 16.7707 179.974 16.9461 179.324 16.9461C178.838 16.9461 177.213 16.7707 176.888 15L173.479 16.4143C174.451 19.0704 177.052 19.9557 179.324 19.9557Z" fill="white"/>
<path d="M195.083 21.1946V33.9375C195.083 37.1225 194.755 38.8932 192.157 38.8932C191.671 38.8932 191.346 38.8932 190.857 38.7179V44.2025C191.832 44.559 192.483 44.559 193.294 44.559C200.604 44.559 200.929 39.0715 200.929 35.8836V26.6821H205.152V44.2025H211V21.1946H195.083Z" fill="white"/>
<path d="M81.5848 57.1149H82.4078V52.8458H87.2136V57.1149H88.0366V48.7462H87.2136V52.1737H82.4078V48.7462H81.5848V57.1149Z" fill="white"/>
<path d="M90.1306 57.1149H94.6377V56.4428H90.9535V52.764H94.4913V52.0919H90.9535V49.4212H94.6377V48.7462H90.1306V57.1149Z" fill="white"/>
<path d="M100.061 57.115H100.876V55.9637H101.218C103.93 55.9637 105.052 54.3624 105.052 52.6852C105.052 50.7216 103.596 49.4213 101.218 49.4213H100.876V48.4161H100.061V49.4213H99.7305C97.3378 49.4213 95.8853 50.7216 95.8853 52.6852C95.8853 54.3624 97.0069 55.9637 99.7305 55.9637H100.061V57.115ZM100.876 50.0934C103.596 50.1284 104.194 51.3966 104.194 52.6852C104.194 54.6956 102.855 55.2186 100.876 55.2887V50.0934ZM100.061 55.2887C98.0817 55.2186 96.7433 54.6956 96.7433 52.6852C96.7433 51.3966 97.3378 50.1284 100.061 50.0934V55.2887Z" fill="white"/>
<path d="M108.024 57.1149H108.815V49.4212H111.047V48.7462H105.796V49.4212H108.024V57.1149Z" fill="white"/>
<path d="M112.019 57.1149H112.944L115.176 53.439H115.885V57.1149H116.711V48.7462H114.775C112.236 48.7462 111.87 50.4264 111.87 51.1686C111.87 52.5828 112.98 53.439 114.286 53.3922L112.019 57.1149ZM115.885 52.764H114.696C114.022 52.764 112.684 52.6851 112.684 51.0868C112.684 49.5352 114.101 49.4212 114.775 49.4212H115.885V52.764Z" fill="white"/>
<path d="M118.816 57.1149H119.639V52.8458H124.445V57.1149H125.268V48.7462H124.445V52.1737H119.639V48.7462H118.816V57.1149Z" fill="white"/>
<path d="M126.469 57.1148H127.294L128.448 54.3973H131.983L133.14 57.1148H133.963L130.2 48.5299L126.469 57.1148ZM128.747 53.7369L130.2 50.3123L131.687 53.7369H128.747Z" fill="white"/>
<path d="M134.915 57.1149H135.84L138.072 53.439H138.781V57.1149H139.604V48.7462H137.671C135.132 48.7462 134.766 50.4264 134.766 51.1686C134.766 52.5828 135.875 53.439 137.179 53.3922L134.915 57.1149ZM138.781 52.764H137.592C136.915 52.764 135.577 52.6851 135.577 51.0868C135.577 49.5352 136.997 49.4212 137.671 49.4212H138.781V52.764Z" fill="white"/>
<path d="M144.491 57.1149H145.314V53.062L149.078 57.1149H150.152L146.09 52.7991L150.085 48.7462H149.078L145.314 52.65V48.7462H144.491V57.1149Z" fill="white"/>
<path d="M155.462 57.3778C157.957 57.3778 160.004 55.5866 160.004 52.948C160.004 50.3123 157.957 48.5299 155.462 48.5299C153.002 48.5299 150.955 50.3123 150.955 52.948C150.955 55.5866 153.002 57.3778 155.462 57.3778ZM155.462 56.6706C153.415 56.6706 151.813 55.1395 151.813 52.948C151.813 50.7565 153.415 49.1932 155.462 49.1932C157.512 49.1932 159.146 50.7565 159.146 52.948C159.146 55.1395 157.512 56.6706 155.462 56.6706Z" fill="white"/>
<path d="M161.138 57.115H161.928L162.704 50.9378L165.794 57.4919L168.849 50.9378L169.674 57.115H170.415L169.262 48.4161L165.794 55.8936L162.291 48.4161L161.138 57.115Z" fill="white"/>
<path d="M171.962 48.7462V57.1149H172.785V49.4212H177.59V57.1149H178.413V48.7462H171.962Z" fill="white"/>
<path d="M179.617 57.1148H180.44L181.594 54.3973H185.132L186.285 57.1148H187.108L183.345 48.5299L179.617 57.1148ZM181.892 53.7369L183.345 50.3123L184.833 53.7369H181.892Z" fill="white"/>
<path d="M188.277 57.1149H189.1V52.8458H193.906V57.1149H194.732V48.7462H193.906V52.1737H189.1V48.7462H188.277V57.1149Z" fill="white"/>
<path d="M196.823 48.7463V57.4919L202.569 50.4937V57.115H203.38V48.4161L197.649 55.3676V48.7463H196.823Z" fill="white"/>
<path d="M205.234 57.1149H206.159L208.391 53.439H209.099V57.1149H209.925V48.7462H207.992C205.45 48.7462 205.084 50.4264 205.084 51.1686C205.084 52.5828 206.194 53.439 207.5 53.3922L205.234 57.1149ZM209.099 52.764H207.91C207.237 52.764 205.898 52.6851 205.898 51.0868C205.898 49.5352 207.316 49.4212 207.992 49.4212H209.099V52.764Z" fill="white"/>
</svg>
